<?xml version="1.0" encoding="utf-8"?>
<!-- Generator: Adobe Illustrator 23.1.1, SVG Export Plug-In . SVG Version: 6.00 Build 0)  -->
<svg version="1.1" id="Layer_1" xmlns="http://www.w3.org/2000/svg" xmlns:xlink="http://www.w3.org/1999/xlink" x="0px" y="0px"
	 viewBox="0 0 16 16" style="enable-background:new 0 0 16 16;" xml:space="preserve">
<path id="Design" d="M3.964,15.767c-0.128-0.128-0.232-0.244-0.232-0.257c0-0.013,1.676-1.7,3.725-3.749s3.725-3.736,3.725-3.749
	c0-0.013-1.676-1.7-3.725-3.749C5.408,2.214,3.731,0.521,3.731,0.501C3.731,0.454,4.187,0,4.233,0c0.019,0,1.835,1.8,4.035,4l4,4
	l-4,4c-2.2,2.2-4.016,4-4.036,4S4.092,15.895,3.964,15.767L3.964,15.767z"/>
</svg>
