<?xml version="1.0" encoding="utf-8"?>
<!-- Generator: Adobe Illustrator 23.1.1, SVG Export Plug-In . SVG Version: 6.00 Build 0)  -->
<svg version="1.1" id="Layer_1" xmlns="http://www.w3.org/2000/svg" xmlns:xlink="http://www.w3.org/1999/xlink" x="0px" y="0px"
	 viewBox="0 0 16 16" style="enable-background:new 0 0 16 16;" xml:space="preserve">
<path id="Design" d="M8,16l0.486-0.71l0.336-0.486c0.224-0.324,0.542-0.81,0.953-1.458c0.411-0.648,0.791-1.283,1.14-1.907
	c0.698-1.171,1.246-2.243,1.645-3.215c0.548-1.196,0.822-2.143,0.822-2.841c0-1.495-0.523-2.766-1.57-3.813S9.495,0,8,0
	S5.234,0.523,4.187,1.57s-1.57,2.318-1.57,3.813c0,0.698,0.274,1.645,0.822,2.841c0.399,0.972,0.947,2.044,1.645,3.215
	c0.798,1.396,1.607,2.679,2.43,3.85l0,0L8,16z M8,13.832c-0.623-0.922-1.246-1.919-1.869-2.991C5.408,9.62,4.86,8.598,4.486,7.776
	C4.037,6.704,3.813,5.907,3.813,5.383c0-1.171,0.405-2.162,1.215-2.972S6.829,1.196,8,1.196s2.156,0.411,2.953,1.234
	c0.822,0.798,1.234,1.782,1.234,2.953c0,0.523-0.224,1.321-0.673,2.393c-0.374,0.822-0.922,1.844-1.645,3.065
	C9.246,11.913,8.623,12.91,8,13.832z M8,6.579c0.324,0,0.604-0.118,0.841-0.355s0.355-0.517,0.355-0.841
	c0-0.324-0.118-0.604-0.355-0.841S8.324,4.187,8,4.187c-0.324,0-0.611,0.125-0.86,0.374C6.916,4.785,6.804,5.059,6.804,5.383
	c0,0.324,0.118,0.604,0.355,0.841S7.676,6.579,8,6.579z"/>
</svg>
