<?xml version="1.0" encoding="utf-8"?>
<!-- Generator: Adobe Illustrator 23.1.1, SVG Export Plug-In . SVG Version: 6.00 Build 0)  -->
<svg version="1.1" id="Layer_1" xmlns="http://www.w3.org/2000/svg" xmlns:xlink="http://www.w3.org/1999/xlink" x="0px" y="0px"
	 viewBox="0 0 16 16" style="enable-background:new 0 0 16 16;" xml:space="preserve">
<path id="Design" d="M11.333,16c0.556,0,1.028-0.194,1.417-0.583c0.389-0.389,0.583-0.861,0.583-1.417l0,0V2
	c0-0.556-0.194-1.028-0.583-1.417S11.889,0,11.333,0l0,0H4.667C4.111,0,3.639,0.194,3.25,0.583S2.667,1.444,2.667,2l0,0v12
	c0,0.556,0.194,1.028,0.583,1.417C3.639,15.806,4.111,16,4.667,16l0,0H11.333z M11.333,14.667H4.667
	c-0.194,0-0.354-0.062-0.479-0.188S4,14.194,4,14l0,0V2c0-0.194,0.062-0.354,0.188-0.479s0.285-0.188,0.479-0.188l0,0h6.667
	c0.194,0,0.354,0.062,0.479,0.188S12,1.806,12,2l0,0v12c0,0.194-0.062,0.354-0.188,0.479S11.528,14.667,11.333,14.667L11.333,14.667
	z M8,14c0.194,0,0.354-0.062,0.479-0.188s0.188-0.285,0.188-0.479c0-0.194-0.062-0.354-0.188-0.479S8.194,12.667,8,12.667
	s-0.361,0.069-0.5,0.208c-0.111,0.111-0.167,0.264-0.167,0.458c0,0.194,0.062,0.354,0.188,0.479S7.806,14,8,14z"/>
</svg>
