<?xml version="1.0" encoding="utf-8"?>
<!-- Generator: Adobe Illustrator 23.1.1, SVG Export Plug-In . SVG Version: 6.00 Build 0)  -->
<svg version="1.1" id="Layer_1" xmlns="http://www.w3.org/2000/svg" xmlns:xlink="http://www.w3.org/1999/xlink" x="0px" y="0px"
	 viewBox="0 0 16 16" style="enable-background:new 0 0 16 16;" xml:space="preserve">
<path id="Design" d="M12.667,16v-2.667H16V6.667c0-0.556-0.194-1.028-0.583-1.417S14.556,4.667,14,4.667l0,0h-1.333V0H3.333v4.667H2
	c-0.556,0-1.028,0.194-1.417,0.583S0,6.111,0,6.667l0,0v6.667h3.333V16H12.667z M11.333,4.667H4.667V1.333h6.667V4.667z M3.333,12
	h-2V6.667C1.333,6.222,1.556,6,2,6l0,0h12c0.444,0,0.667,0.222,0.667,0.667l0,0V12h-2V9.333H3.333V12z M2.667,8
	c0.194,0,0.354-0.062,0.479-0.188s0.188-0.285,0.188-0.479S3.271,6.979,3.146,6.854S2.861,6.667,2.667,6.667
	c-0.194,0-0.361,0.069-0.5,0.208C2.056,6.986,2,7.139,2,7.333s0.062,0.354,0.188,0.479S2.472,8,2.667,8z M11.333,14.667H4.667v-4
	h6.667V14.667z"/>
</svg>
