<?xml version="1.0" encoding="utf-8"?>
<!-- Generator: Adobe Illustrator 23.1.1, SVG Export Plug-In . SVG Version: 6.00 Build 0)  -->
<svg version="1.1" id="Layer_1" xmlns="http://www.w3.org/2000/svg" xmlns:xlink="http://www.w3.org/1999/xlink" x="0px" y="0px"
	 viewBox="0 0 16 16" style="enable-background:new 0 0 16 16;" xml:space="preserve">
<path id="Design" d="M4.595,15.138v-1.313c-0.903,0-1.675-0.321-2.318-0.964c-0.643-0.643-0.964-1.415-0.964-2.318
	s0.321-1.675,0.964-2.318s1.415-0.964,2.318-0.964l0,0h8.903l-4.144,4.103l0.985,0.985l5.251-5.251L16,6.605l-0.41-0.492
	l-5.251-5.251L9.354,1.846l4.144,4.103H4.595c-1.258,0-2.338,0.451-3.241,1.354S0,9.285,0,10.544s0.451,2.338,1.354,3.241
	S3.337,15.138,4.595,15.138L4.595,15.138z"/>
</svg>
