<?xml version="1.0" encoding="UTF-8"?>
<svg width="1024px" height="683px" viewBox="0 0 1024 683" version="1.1" xmlns="http://www.w3.org/2000/svg" xmlns:xlink="http://www.w3.org/1999/xlink">
    <!-- Generator: Sketch 62 (91390) - https://sketch.com -->
    <title>No-Image</title>
    <desc>Created with Sketch.</desc>
    <g id="No-Image" stroke="none" stroke-width="1" fill="none" fill-rule="evenodd">
        <rect fill="#EAEAEA" x="0" y="0" width="1024" height="683"></rect>
        <rect id="Rectangle" fill="#F9F9F9" x="0" y="432" width="1024" height="251"></rect>
        <rect id="Rectangle-Copy" fill="#F9F9F9" x="0" y="34.4402348" width="327" height="265"></rect>
        <rect id="Rectangle-Copy-2" fill="#F9F9F9" x="349" y="34.4402348" width="326" height="265"></rect>
        <rect id="Rectangle-Copy-3" fill="#F9F9F9" x="697" y="34.4402348" width="327" height="265"></rect>
        <g id="car" transform="translate(262.000000, 151.000000)" fill="#D1D1D1">
            <path d="M458.936548,160.088563 L420.565014,50.1083375 C410.105135,20.1443373 381.801933,0 350.14262,0 L149.85738,0 C118.198067,0 89.8948653,20.1443373 79.4536314,50.0896334 L41.0820968,160.069859 C20.5911753,173.592938 7.6142132,196.954384 7.6142132,222.653845 L7.6142132,355.37828 C7.6142132,376.046333 24.3015424,381.979695 44.9043342,381.979695 C65.5071261,381.979695 82.1944553,376.046333 82.1944553,355.37828 L82.1944553,315.582148 C82.1944553,315.582148 180.65902,320.463923 250,320.463923 C319.34098,320.463923 417.805545,315.582148 417.805545,315.582148 L417.805545,355.37828 C417.805545,376.046333 434.492874,381.979695 455.095666,381.979695 C475.698458,381.979695 492.385787,376.046333 492.385787,355.37828 L492.385787,222.653845 C492.385787,196.954384 479.39018,173.592938 458.936548,160.088563 Z M93.2882663,123.690346 L114.655506,62.4530567 C119.894768,47.4523525 134.009078,37.40824 149.85738,37.40824 L350.14262,37.40824 C365.990922,37.40824 380.105232,47.4523525 385.344494,62.4530567 L406.711734,123.690346 C410.067845,133.322967 402.069114,143.030406 392.019426,141.403147 C355.456462,135.473941 308.452265,130.92884 250,130.92884 C191.547735,130.92884 144.543538,135.473941 107.980574,141.403147 C97.9308864,143.030406 89.9321554,133.322967 93.2882663,123.690346 Z M91.5169856,267.261093 C76.0788754,267.261093 63.5493948,254.691924 63.5493948,239.204913 C63.5493948,223.717901 76.0788754,211.148733 91.5169856,211.148733 C106.955096,211.148733 119.484576,223.717901 119.484576,239.204913 C119.484576,254.691924 106.955096,267.261093 91.5169856,267.261093 Z M305.935182,259.363798 L194.064818,259.363798 C183.772745,259.363798 175.419758,250.984352 175.419758,240.659678 C175.419758,230.335003 183.772745,221.955558 194.064818,221.955558 L305.935182,221.955558 C316.227255,221.955558 324.580242,230.335003 324.580242,240.659678 C324.580242,250.984352 316.227255,259.363798 305.935182,259.363798 Z M408.483014,267.261093 C393.044904,267.261093 380.515424,254.691924 380.515424,239.204913 C380.515424,223.717901 393.044904,211.148733 408.483014,211.148733 C423.921125,211.148733 436.450605,223.717901 436.450605,239.204913 C436.450605,254.691924 423.921125,267.261093 408.483014,267.261093 Z" id="Shape" fill-rule="nonzero"></path>
            <path d="M447.969543,129.441624 L489.986302,129.441624 C495.509151,129.441621 499.986305,133.918775 499.986305,139.441624 C499.986305,139.562765 499.984104,139.683895 499.979702,139.804955 C499.308121,158.276779 481.971402,167.51269 447.969543,167.51269 C447.969543,167.51269 447.969543,154.822335 447.969543,129.441624 Z" id="Path-2"></path>
            <path d="M0,129.441624 L42.0167587,129.441624 C47.5396078,129.441621 52.0167617,133.918775 52.0167617,139.441624 C52.0167617,139.562765 52.0145604,139.683895 52.010159,139.804955 C51.3385781,158.276779 34.0018584,167.51269 0,167.51269 C0,167.51269 0,154.822335 0,129.441624 Z" id="Path-2-Copy" transform="translate(26.015228, 148.477157) scale(-1, 1) translate(-26.015228, -148.477157) "></path>
        </g>
        <g id="car-copy" transform="translate(882.000000, 151.000000)" fill="#E1E1E1">
            <path d="M458.936548,160.088563 L420.565014,50.1083375 C410.105135,20.1443373 381.801933,0 350.14262,0 L149.85738,0 C118.198067,0 89.8948653,20.1443373 79.4536314,50.0896334 L41.0820968,160.069859 C20.5911753,173.592938 7.6142132,196.954384 7.6142132,222.653845 L7.6142132,355.37828 C7.6142132,376.046333 24.3015424,381.979695 44.9043342,381.979695 C65.5071261,381.979695 82.1944553,376.046333 82.1944553,355.37828 L82.1944553,315.582148 C82.1944553,315.582148 180.65902,320.463923 250,320.463923 C319.34098,320.463923 417.805545,315.582148 417.805545,315.582148 L417.805545,355.37828 C417.805545,376.046333 434.492874,381.979695 455.095666,381.979695 C475.698458,381.979695 492.385787,376.046333 492.385787,355.37828 L492.385787,222.653845 C492.385787,196.954384 479.39018,173.592938 458.936548,160.088563 Z M93.2882663,123.690346 L114.655506,62.4530567 C119.894768,47.4523525 134.009078,37.40824 149.85738,37.40824 L350.14262,37.40824 C365.990922,37.40824 380.105232,47.4523525 385.344494,62.4530567 L406.711734,123.690346 C410.067845,133.322967 402.069114,143.030406 392.019426,141.403147 C355.456462,135.473941 308.452265,130.92884 250,130.92884 C191.547735,130.92884 144.543538,135.473941 107.980574,141.403147 C97.9308864,143.030406 89.9321554,133.322967 93.2882663,123.690346 Z M91.5169856,267.261093 C76.0788754,267.261093 63.5493948,254.691924 63.5493948,239.204913 C63.5493948,223.717901 76.0788754,211.148733 91.5169856,211.148733 C106.955096,211.148733 119.484576,223.717901 119.484576,239.204913 C119.484576,254.691924 106.955096,267.261093 91.5169856,267.261093 Z M305.935182,259.363798 L194.064818,259.363798 C183.772745,259.363798 175.419758,250.984352 175.419758,240.659678 C175.419758,230.335003 183.772745,221.955558 194.064818,221.955558 L305.935182,221.955558 C316.227255,221.955558 324.580242,230.335003 324.580242,240.659678 C324.580242,250.984352 316.227255,259.363798 305.935182,259.363798 Z M408.483014,267.261093 C393.044904,267.261093 380.515424,254.691924 380.515424,239.204913 C380.515424,223.717901 393.044904,211.148733 408.483014,211.148733 C423.921125,211.148733 436.450605,223.717901 436.450605,239.204913 C436.450605,254.691924 423.921125,267.261093 408.483014,267.261093 Z" id="Shape" fill-rule="nonzero"></path>
            <path d="M0,129.441624 L42.0167587,129.441624 C47.5396078,129.441621 52.0167617,133.918775 52.0167617,139.441624 C52.0167617,139.562765 52.0145604,139.683895 52.010159,139.804955 C51.3385781,158.276779 34.0018584,167.51269 0,167.51269 C0,167.51269 0,154.822335 0,129.441624 Z" id="Path-2-Copy" transform="translate(26.015228, 148.477157) scale(-1, 1) translate(-26.015228, -148.477157) "></path>
        </g>
        <g id="car-copy-2" transform="translate(-358.000000, 151.000000)" fill="#E1E1E1">
            <path d="M458.936548,160.088563 L420.565014,50.1083375 C410.105135,20.1443373 381.801933,0 350.14262,0 L149.85738,0 C118.198067,0 89.8948653,20.1443373 79.4536314,50.0896334 L41.0820968,160.069859 C20.5911753,173.592938 7.6142132,196.954384 7.6142132,222.653845 L7.6142132,355.37828 C7.6142132,376.046333 24.3015424,381.979695 44.9043342,381.979695 C65.5071261,381.979695 82.1944553,376.046333 82.1944553,355.37828 L82.1944553,315.582148 C82.1944553,315.582148 180.65902,320.463923 250,320.463923 C319.34098,320.463923 417.805545,315.582148 417.805545,315.582148 L417.805545,355.37828 C417.805545,376.046333 434.492874,381.979695 455.095666,381.979695 C475.698458,381.979695 492.385787,376.046333 492.385787,355.37828 L492.385787,222.653845 C492.385787,196.954384 479.39018,173.592938 458.936548,160.088563 Z M93.2882663,123.690346 L114.655506,62.4530567 C119.894768,47.4523525 134.009078,37.40824 149.85738,37.40824 L350.14262,37.40824 C365.990922,37.40824 380.105232,47.4523525 385.344494,62.4530567 L406.711734,123.690346 C410.067845,133.322967 402.069114,143.030406 392.019426,141.403147 C355.456462,135.473941 308.452265,130.92884 250,130.92884 C191.547735,130.92884 144.543538,135.473941 107.980574,141.403147 C97.9308864,143.030406 89.9321554,133.322967 93.2882663,123.690346 Z M91.5169856,267.261093 C76.0788754,267.261093 63.5493948,254.691924 63.5493948,239.204913 C63.5493948,223.717901 76.0788754,211.148733 91.5169856,211.148733 C106.955096,211.148733 119.484576,223.717901 119.484576,239.204913 C119.484576,254.691924 106.955096,267.261093 91.5169856,267.261093 Z M305.935182,259.363798 L194.064818,259.363798 C183.772745,259.363798 175.419758,250.984352 175.419758,240.659678 C175.419758,230.335003 183.772745,221.955558 194.064818,221.955558 L305.935182,221.955558 C316.227255,221.955558 324.580242,230.335003 324.580242,240.659678 C324.580242,250.984352 316.227255,259.363798 305.935182,259.363798 Z M408.483014,267.261093 C393.044904,267.261093 380.515424,254.691924 380.515424,239.204913 C380.515424,223.717901 393.044904,211.148733 408.483014,211.148733 C423.921125,211.148733 436.450605,223.717901 436.450605,239.204913 C436.450605,254.691924 423.921125,267.261093 408.483014,267.261093 Z" id="Shape" fill-rule="nonzero"></path>
            <path d="M447.969543,129.441624 L489.986302,129.441624 C495.509151,129.441621 499.986305,133.918775 499.986305,139.441624 C499.986305,139.562765 499.984104,139.683895 499.979702,139.804955 C499.308121,158.276779 481.971402,167.51269 447.969543,167.51269 C447.969543,167.51269 447.969543,154.822335 447.969543,129.441624 Z" id="Path-2"></path>
        </g>
    </g>
</svg>